<?xml version="1.0" standalone="no"?>
<!DOCTYPE svg PUBLIC "-//W3C//DTD SVG 20010904//EN"
 "http://www.w3.org/TR/2001/REC-SVG-20010904/DTD/svg10.dtd">
<svg version="1.0" xmlns="http://www.w3.org/2000/svg"
 width="500.000000pt" height="500.000000pt" viewBox="0 0 500.000000 500.000000"
 preserveAspectRatio="xMidYMid meet">

<g transform="translate(0.000000,500.000000) scale(0.100000,-0.100000)"
fill="#000000" stroke="none">
<path d="M1908 3591 c-56 -33 -73 -38 -106 -34 -34 5 -42 2 -60 -22 -28 -35
-28 -47 3 -83 l25 -30 0 -321 c0 -310 -1 -321 -20 -331 -31 -16 -53 -67 -46
-106 12 -63 92 -103 147 -74 16 9 64 -15 294 -147 179 -103 275 -164 275 -174
0 -33 40 -69 76 -69 39 0 84 36 84 67 0 13 76 62 270 176 l271 158 38 -12 c30
-9 44 -9 67 2 39 19 28 35 -21 31 -49 -4 -72 16 -77 68 -4 44 8 38 -377 194
-168 67 -307 128 -309 134 -2 6 33 32 77 57 91 53 100 61 71 70 -13 4 -42 -7
-89 -34 -80 -47 -104 -52 -97 -18 3 12 10 57 17 101 9 68 9 81 -5 94 -8 9 -17
14 -20 11 -2 -2 -11 -50 -19 -107 -13 -87 -20 -107 -41 -127 -14 -13 -26 -33
-26 -44 0 -14 -50 -48 -210 -140 -195 -113 -230 -130 -230 -115 0 3 84 152
186 331 162 283 184 327 171 340 -12 12 -34 -20 -167 -249 -230 -396 -232
-398 -241 -398 -5 0 -9 139 -9 316 l0 316 25 30 c14 16 25 38 25 48 0 13 24
32 75 60 62 34 74 44 64 56 -15 19 -15 19 -91 -25z m852 -756 c173 -69 317
-129 319 -131 2 -2 -260 -4 -583 -4 -429 0 -587 3 -584 11 2 6 94 64 205 129
191 112 204 117 246 113 28 -3 47 -1 52 7 4 6 12 9 19 7 6 -3 153 -62 326
-132z m-916 -106 c31 -25 34 -61 6 -89 -28 -28 -64 -25 -89 7 -24 30 -20 58
11 86 26 22 40 22 72 -4z m1256 -87 c0 -4 -120 -76 -266 -160 -250 -143 -267
-151 -287 -137 -28 19 -67 19 -94 0 -21 -15 -35 -8 -287 137 -146 84 -266 156
-266 161 0 4 270 7 600 7 330 0 600 -3 600 -8z"/>
<path d="M1835 1926 c-47 -21 -70 -52 -70 -98 0 -51 33 -81 107 -98 62 -14 98
-35 98 -55 0 -35 -84 -46 -148 -20 -34 15 -38 15 -49 -1 -7 -10 -13 -24 -13
-31 0 -39 170 -59 230 -28 31 16 60 61 60 94 0 41 -46 78 -120 96 -72 18 -96
34 -86 60 11 29 56 38 113 22 51 -14 51 -14 62 10 14 32 8 40 -37 53 -50 14
-111 12 -147 -4z"/>
<path d="M3035 1921 c-45 -20 -92 -70 -101 -107 -12 -46 1 -129 25 -163 46
-64 162 -92 244 -58 52 22 61 40 33 66 l-23 22 -37 -22 c-46 -27 -97 -19 -138
21 -31 32 -38 87 -16 135 24 53 106 71 164 36 32 -19 32 -19 53 3 l21 22 -23
22 c-47 44 -135 54 -202 23z"/>
<path d="M1410 1755 l0 -175 130 0 130 0 0 35 0 35 -90 0 -90 0 0 140 0 140
-40 0 -40 0 0 -175z"/>
<path d="M2130 1900 c0 -30 1 -30 55 -30 l55 0 0 -145 0 -145 40 0 40 0 0 145
0 145 55 0 c54 0 55 0 55 30 l0 30 -150 0 -150 0 0 -30z"/>
<path d="M2550 1755 l0 -175 135 0 135 0 0 30 0 29 -97 3 -98 3 0 40 0 40 83
3 82 3 0 29 0 29 -82 3 -83 3 0 35 0 35 93 3 92 3 0 29 0 30 -130 0 -130 0 0
-175z"/>
<path d="M3380 1755 l0 -175 40 0 40 0 0 75 0 75 80 0 80 0 0 -75 0 -75 40 0
40 0 0 175 0 175 -40 0 -40 0 0 -70 0 -70 -80 0 -80 0 0 70 0 70 -40 0 -40 0
0 -175z"/>
<path d="M1684 1266 c-3 -8 -4 -31 -2 -52 3 -34 6 -40 33 -44 37 -6 51 -50 16
-50 -12 0 -21 5 -21 10 0 6 -7 10 -16 10 -10 0 -14 -7 -12 -22 2 -19 10 -24
45 -26 38 -3 43 0 48 21 4 14 5 38 3 53 -2 25 -8 29 -35 32 -27 3 -33 7 -33
28 0 15 6 24 15 24 8 0 15 -4 15 -10 0 -5 9 -10 20 -10 22 0 26 20 8 38 -17
17 -77 15 -84 -2z"/>
<path d="M1870 1185 c0 -78 3 -95 15 -95 12 0 15 17 15 95 0 78 -3 95 -15 95
-12 0 -15 -17 -15 -95z"/>
<path d="M2002 1268 c-7 -7 -12 -44 -12 -95 0 -76 2 -83 20 -83 18 0 20 7 20
86 0 64 3 85 13 82 8 -3 13 -32 15 -86 3 -74 5 -82 22 -82 18 0 20 7 20 76 0
93 -10 114 -53 114 -18 0 -38 -5 -45 -12z"/>
<path d="M2194 1267 c-3 -8 -4 -49 -2 -93 l3 -79 33 -3 c38 -4 62 12 62 39 0
25 -26 24 -33 -1 -3 -11 -12 -20 -21 -20 -13 0 -16 13 -16 75 0 61 3 75 15 75
9 0 18 -7 21 -15 7 -18 34 -20 34 -2 0 7 -5 18 -12 25 -16 16 -77 15 -84 -1z"/>
<path d="M2370 1185 l0 -95 40 0 c29 0 40 4 40 15 0 8 -9 15 -20 15 -15 0 -20
7 -20 25 0 18 5 25 20 25 11 0 20 7 20 15 0 8 -9 15 -20 15 -15 0 -20 7 -20
25 0 18 5 25 20 25 11 0 20 7 20 15 0 11 -11 15 -40 15 l-40 0 0 -95z"/>
<path d="M2662 1268 c-18 -18 -14 -38 8 -38 11 0 20 5 20 10 0 6 7 10 16 10
11 0 14 -8 12 -27 -2 -22 -9 -29 -30 -31 -26 -3 -28 -6 -28 -53 l0 -49 45 0
c33 0 45 4 45 15 0 10 -10 15 -30 15 -43 0 -42 35 1 44 29 6 30 7 27 58 -3 53
-3 53 -38 56 -19 2 -41 -3 -48 -10z"/>
<path d="M2852 1268 c-7 -7 -12 -40 -12 -84 0 -82 10 -97 62 -92 l33 3 0 90 0
90 -35 3 c-19 2 -41 -3 -48 -10z m58 -83 c0 -60 -3 -75 -15 -75 -12 0 -15 15
-15 75 0 60 3 75 15 75 12 0 15 -15 15 -75z"/>
<path d="M3042 1268 c-17 -17 -15 -38 3 -38 8 0 15 5 15 10 0 6 9 10 21 10 16
0 20 -5 17 -27 -2 -21 -9 -29 -28 -32 -32 -4 -40 -17 -40 -63 l0 -38 50 0 c37
0 50 4 50 14 0 9 -12 16 -32 18 -45 4 -48 31 -6 43 32 10 33 12 33 60 0 50 0
50 -35 53 -19 2 -41 -3 -48 -10z"/>
<path d="M3232 1268 c-17 -17 -15 -38 3 -38 8 0 15 5 15 10 0 6 9 10 21 10 16
0 20 -5 17 -27 -2 -21 -9 -29 -28 -32 -32 -4 -40 -17 -40 -63 l0 -38 50 0 c37
0 50 4 50 14 0 9 -12 16 -32 18 -45 4 -48 31 -6 43 32 10 33 12 33 60 0 50 0
50 -35 53 -19 2 -41 -3 -48 -10z"/>
</g>
</svg>
